<svg version="1.1" id="Layer_1" xmlns="http://www.w3.org/2000/svg" xmlns:xlink="http://www.w3.org/1999/xlink" x="0px" y="0px"
	 width="100%" viewBox="0 0 1024 1024" enable-background="new 0 0 1024 1024" xml:space="preserve">
<path fill="#000000" opacity="1.000000" stroke="none" 
	d="
M174.707947,590.000000 
	C174.711502,472.509003 174.681549,355.517975 174.743759,238.527008 
	C174.759033,209.778320 194.406082,184.397995 221.766678,177.421478 
	C226.275238,176.271881 230.864807,175.678436 235.564880,175.679398 
	C419.550751,175.716904 603.536621,175.711349 787.522461,175.715912 
	C819.591431,175.716705 847.714294,201.313522 850.334106,233.257736 
	C852.188904,255.874252 850.888428,278.556427 850.907654,301.205078 
	C851.027344,442.524292 850.963379,583.843689 850.967224,725.163025 
	C850.967773,744.327209 851.026672,763.491333 851.024475,782.655518 
	C851.020508,816.817261 830.260498,842.301819 796.815308,848.832886 
	C791.469727,849.876709 785.884216,850.024658 780.409546,850.025208 
	C692.084839,850.034363 603.760193,849.915894 515.435486,849.901550 
	C424.618561,849.886780 333.801514,849.888855 242.984741,850.034058 
	C222.440170,850.066895 204.634415,843.897461 190.653946,828.470215 
	C180.293564,817.037659 174.842270,803.329773 174.795197,787.988159 
	C174.593201,722.159302 174.708664,656.329468 174.707947,590.000000 
M814.721497,734.500000 
	C814.714661,571.678711 814.583374,408.857269 814.869690,246.036514 
	C814.902832,227.214447 800.939270,211.887405 780.988770,211.970322 
	C643.501648,212.541809 506.010956,212.267975 368.521423,212.266861 
	C325.524719,212.266525 282.527863,212.202377 239.531372,212.304138 
	C223.237320,212.342712 210.369141,224.838501 210.276108,240.871735 
	C210.087555,273.367523 210.170547,305.865021 210.176208,338.361786 
	C210.202011,486.349670 210.225021,634.337585 210.292862,782.325439 
	C210.300980,800.038696 222.111099,811.715454 239.850296,811.716431 
	C421.003418,811.726318 602.156494,811.721008 783.309631,811.700867 
	C802.288940,811.698730 814.626831,799.418274 814.704712,780.496521 
	C814.766418,765.497925 814.719604,750.498840 814.721497,734.500000 
z"/>
<path fill="#000000" opacity="1.000000" stroke="none" 
	d="
M617.183228,352.218475 
	C630.664185,333.982239 643.979431,316.065460 657.102539,298.008972 
	C659.282959,295.008850 661.576355,293.613892 665.349182,293.640411 
	C685.680176,293.783447 706.012695,293.696014 726.344727,293.701141 
	C733.235291,293.702881 733.256165,293.720245 733.256042,300.611511 
	C733.254028,428.436432 733.246704,556.261353 733.239868,684.086304 
	C733.239075,698.918640 733.106262,713.752747 733.311768,728.582214 
	C733.371765,732.911194 732.020813,734.442139 727.603943,734.388306 
	C710.940796,734.185181 694.273743,734.311646 677.608154,734.290466 
	C670.742432,734.281738 670.715759,734.253906 670.714783,727.346497 
	C670.703674,645.351807 670.703613,563.357056 670.695007,481.362335 
	C670.691895,451.864288 670.688599,422.366211 670.631653,392.868256 
	C670.627319,390.631561 671.246155,388.166473 669.044495,386.050720 
	C665.349609,387.975830 663.709167,391.803223 661.453979,394.866119 
	C618.289673,453.487885 575.255432,512.205322 532.170410,570.885559 
	C527.537537,577.195374 522.756226,583.396240 518.045105,589.648621 
	C513.658020,595.471008 512.663147,595.500427 508.335754,589.700195 
	C496.580505,573.944153 484.851135,558.168701 473.117310,542.396667 
	C435.230621,491.471283 397.350311,440.541138 359.441406,389.632294 
	C358.388611,388.218445 357.559662,386.413727 355.338684,386.136658 
	C353.431885,387.881470 354.315002,390.184174 354.314270,392.196594 
	C354.274048,503.022766 354.285583,613.848938 354.291351,724.675110 
	C354.291412,726.008362 354.152222,727.356934 354.304810,728.672058 
	C354.818726,733.101501 352.832550,734.422668 348.533173,734.373413 
	C332.036407,734.184326 315.532959,734.112549 299.039215,734.404724 
	C293.883087,734.496033 292.588348,732.740662 292.595367,727.792847 
	C292.721680,638.799133 292.690063,549.805176 292.680084,460.811249 
	C292.674133,407.648132 292.643341,354.485046 292.633942,301.321930 
	C292.632599,293.728760 292.659485,293.719879 300.383118,293.716095 
	C320.548462,293.706207 340.714020,293.744354 360.878998,293.657745 
	C363.932098,293.644653 366.100769,294.374664 368.056793,297.018738 
	C396.989380,336.128387 426.051147,375.142456 455.053802,414.200287 
	C472.434082,437.606232 489.764130,461.049469 507.120117,484.473419 
	C508.012665,485.678040 508.961853,486.841034 509.842255,488.054230 
	C512.254211,491.377869 514.335815,491.226471 516.789124,487.882019 
	C525.458984,476.062683 534.333313,464.393646 543.046997,452.606171 
	C567.704529,419.250824 592.320740,385.865021 617.183228,352.218475 
z"/>
</svg>